<?xml version="1.0" standalone="no"?>
<!DOCTYPE svg PUBLIC "-//W3C//DTD SVG 20010904//EN"
 "http://www.w3.org/TR/2001/REC-SVG-20010904/DTD/svg10.dtd">
<svg version="1.0" xmlns="http://www.w3.org/2000/svg"
 width="592.000000pt" height="592.000000pt" viewBox="0 0 592.000000 592.000000"
 preserveAspectRatio="xMidYMid meet">
<metadata>
Created by potrace 1.11, written by Peter Selinger 2001-2013
</metadata>
<g transform="translate(0.000000,592.000000) scale(0.100000,-0.100000)"
fill="#000000" stroke="none">
<path d="M2758 5885 c-2 -2 -34 -6 -73 -10 -89 -7 -143 -14 -175 -20 -14 -3
-41 -7 -60 -10 -19 -3 -46 -7 -60 -10 -14 -3 -36 -7 -50 -10 -58 -11 -71 -14
-78 -19 -10 -6 -70 -18 -94 -20 -10 0 -18 -4 -18 -8 0 -4 -6 -8 -14 -8 -13 0
-174 -50 -216 -67 -8 -4 -17 -7 -20 -8 -93 -31 -394 -179 -461 -226 -14 -10
-31 -19 -39 -21 -7 -2 -21 -10 -30 -18 -32 -28 -135 -95 -142 -92 -5 1 -8 -2
-8 -6 0 -5 -20 -23 -45 -41 -24 -17 -50 -37 -57 -44 -7 -7 -31 -25 -53 -42
-22 -16 -94 -83 -160 -147 -66 -65 -124 -118 -128 -118 -5 0 -6 -4 -2 -9 3 -5
-3 -16 -13 -23 -10 -7 -51 -53 -92 -103 -40 -49 -78 -93 -84 -97 -6 -4 -7 -8
-2 -8 5 0 0 -10 -11 -22 -30 -34 -173 -253 -173 -266 0 -7 -4 -12 -10 -12 -5
0 -10 -8 -10 -19 0 -10 -7 -24 -15 -31 -8 -7 -15 -17 -15 -22 0 -6 -9 -22 -19
-36 -10 -15 -19 -29 -19 -32 0 -12 -28 -66 -37 -72 -5 -4 -7 -8 -2 -8 4 0 -1
-12 -10 -27 -10 -15 -17 -28 -16 -30 2 -3 -19 -59 -43 -110 -8 -17 -14 -34
-14 -37 0 -4 -7 -23 -16 -44 -9 -20 -18 -44 -20 -52 -3 -16 -23 -85 -47 -162
-8 -27 -13 -48 -10 -48 3 0 0 -7 -7 -15 -7 -8 -10 -15 -7 -15 3 0 1 -17 -4
-37 -27 -108 -55 -285 -65 -413 -14 -163 -9 -475 11 -620 13 -98 20 -143 40
-245 4 -16 8 -39 10 -50 9 -48 59 -218 89 -305 70 -198 172 -416 266 -567 21
-35 37 -63 35 -63 -2 0 7 -12 20 -26 14 -15 25 -31 25 -36 0 -5 9 -18 20 -30
10 -12 16 -26 13 -32 -3 -6 -3 -8 2 -4 4 4 23 -14 41 -40 18 -26 49 -65 68
-87 19 -22 34 -42 33 -45 -1 -3 24 -31 55 -62 31 -32 55 -58 53 -58 -2 0 34
-36 78 -79 126 -122 168 -161 173 -161 3 0 15 -9 27 -21 12 -11 35 -30 50 -42
16 -12 41 -32 55 -43 46 -37 270 -184 281 -184 5 0 11 -3 13 -7 2 -5 26 -19
53 -33 28 -14 52 -27 55 -31 19 -20 287 -134 448 -189 45 -16 82 -27 82 -25 0
2 15 -2 34 -10 18 -8 44 -16 57 -19 25 -5 148 -33 184 -42 52 -12 84 -7 103
16 18 23 19 47 19 554 0 526 0 532 22 581 28 65 71 126 82 119 5 -3 8 -2 7 3
-2 4 1 9 6 10 5 0 13 8 18 17 5 9 31 27 57 40 78 40 163 57 269 55 154 -3 251
-37 331 -117 42 -42 86 -108 90 -134 1 -5 1 -9 2 -10 9 -30 11 -127 13 -575 1
-579 0 -561 56 -564 27 -1 100 10 112 18 5 2 18 6 30 8 112 22 432 124 475
152 12 8 27 12 33 8 5 -3 10 -2 10 2 0 5 23 17 50 28 28 11 50 23 50 27 0 4 3
7 8 6 4 -1 35 12 69 30 35 18 64 31 66 30 1 -2 15 7 31 19 16 13 32 20 37 17
5 -3 9 -1 9 4 0 4 46 37 103 72 95 60 241 166 296 217 14 12 29 19 34 16 6 -3
7 -1 4 4 -4 6 4 18 18 27 13 9 54 45 90 81 37 36 71 65 76 65 5 0 9 4 9 8 0 5
28 39 63 76 68 73 72 78 103 118 12 15 24 25 28 23 3 -3 4 -2 1 1 -3 5 18 35
113 159 17 22 100 151 112 175 7 14 16 27 19 30 3 3 18 28 32 57 15 29 29 49
33 46 3 -4 6 3 6 15 0 11 7 28 16 36 8 9 13 16 10 16 -3 0 12 37 34 83 61 129
83 181 82 189 -1 4 8 29 20 55 12 26 21 51 20 55 -1 4 5 25 13 45 14 38 60
205 69 253 3 14 11 61 20 105 8 44 18 107 22 140 3 33 9 69 11 80 8 28 12 568
6 579 -4 5 -8 27 -9 50 -16 191 -74 448 -151 666 -24 69 -45 130 -46 135 -1 6
-6 13 -10 16 -5 3 -9 12 -10 20 -7 40 -156 325 -218 416 -16 23 -29 44 -29 47
0 3 -15 26 -32 50 -62 83 -73 99 -70 108 1 5 -2 7 -8 3 -5 -3 -10 -2 -10 3 0
10 -112 146 -178 217 -26 27 -46 53 -44 57 1 4 -3 7 -10 6 -7 -2 -12 4 -13 12
0 8 -5 15 -12 15 -15 0 -28 13 -28 28 0 7 -5 12 -10 12 -10 0 -52 36 -133 113
-18 17 -36 32 -38 32 -4 0 -48 36 -76 63 -10 9 -21 17 -26 17 -4 0 -19 11 -34
25 -15 14 -30 25 -34 25 -4 0 -15 7 -25 16 -9 8 -53 38 -96 64 -43 27 -83 53
-89 57 -17 13 -45 28 -159 85 -189 94 -245 118 -385 165 -41 13 -82 27 -90 30
-8 3 -19 7 -25 9 -5 1 -37 10 -70 19 -33 9 -71 18 -85 21 -14 2 -32 7 -40 10
-15 5 -97 21 -153 30 -15 2 -39 6 -55 9 -38 7 -107 16 -161 22 -53 5 -479 12
-483 8z m462 -549 c19 -3 53 -8 75 -11 22 -3 51 -7 65 -10 13 -2 41 -7 62 -10
79 -12 280 -69 356 -101 18 -8 37 -14 42 -14 5 0 39 -13 75 -30 36 -16 69 -30
74 -30 5 0 14 -7 21 -15 7 -8 16 -12 21 -9 5 3 9 0 9 -6 0 -6 4 -9 9 -5 5 3
15 0 23 -7 7 -7 20 -14 28 -16 8 -2 17 -7 20 -11 3 -5 15 -11 28 -15 12 -4 22
-11 22 -15 0 -4 6 -8 13 -8 13 0 214 -131 239 -157 9 -9 21 -16 26 -16 6 0 12
-4 14 -8 2 -4 24 -24 50 -44 26 -19 45 -38 42 -41 -3 -3 3 -8 13 -11 10 -3 44
-32 75 -65 32 -32 60 -56 63 -53 3 3 5 1 5 -5 0 -6 19 -30 43 -54 23 -24 58
-64 77 -88 19 -24 40 -48 45 -55 32 -35 64 -84 58 -89 -3 -4 1 -7 10 -7 8 0
19 -10 23 -22 4 -13 9 -25 13 -28 12 -10 51 -69 53 -81 2 -7 11 -21 21 -31 10
-10 15 -23 12 -28 -4 -6 -2 -10 4 -10 11 0 115 -208 159 -320 51 -129 117
-358 107 -369 -3 -2 0 -10 6 -17 6 -8 9 -20 6 -28 -3 -8 -3 -17 1 -20 3 -4 7
-12 8 -19 1 -7 5 -30 9 -52 7 -41 11 -77 20 -175 10 -117 5 -374 -10 -475 -4
-27 -9 -61 -10 -75 -2 -14 -8 -50 -14 -80 -7 -30 -14 -68 -17 -85 -7 -38 -8
-41 -23 -95 -8 -25 -14 -49 -16 -55 -1 -5 -5 -17 -8 -25 -3 -8 -16 -46 -29
-85 -12 -38 -27 -73 -33 -77 -5 -4 -7 -8 -3 -8 13 0 -92 -224 -158 -335 -42
-72 -152 -234 -182 -270 -9 -11 -35 -43 -57 -70 -81 -101 -127 -144 -149 -139
-35 6 -76 26 -76 36 0 5 -4 7 -8 4 -12 -7 -58 43 -70 75 -6 14 -13 41 -16 60
-3 19 -7 43 -10 54 -2 11 -9 56 -16 100 -6 44 -13 91 -16 105 -2 14 -6 48 -9
75 -4 28 -8 64 -11 80 -3 17 -7 45 -10 64 -2 19 -6 46 -8 60 -3 14 -7 51 -11
81 -4 30 -8 66 -10 80 -15 102 -21 149 -30 239 -2 24 -7 51 -9 60 -3 9 -8 47
-12 86 -3 38 -8 78 -10 90 -2 11 -6 40 -9 65 -3 25 -8 59 -10 75 -2 17 -6 57
-10 90 -4 33 -9 71 -11 85 -2 14 -7 52 -10 85 -2 32 -6 60 -8 62 -2 3 -435 5
-567 3 -32 0 -37 -3 -37 -22 1 -19 -5 -150 -15 -353 l-2 -30 -187 -3 -188 -2
-1 62 c-1 75 -13 299 -18 343 -1 10 -558 11 -567 2 -3 -2 -7 -65 -10 -138 -7
-148 -12 -250 -13 -261 -1 -5 -82 -8 -181 -8 -137 0 -180 3 -181 13 -1 6 -2
26 -4 42 -3 36 -17 264 -18 318 -1 36 -2 37 -42 38 -107 2 -529 -2 -532 -5 -5
-4 -10 -35 -17 -96 -3 -25 -8 -56 -10 -70 -3 -14 -7 -45 -10 -70 -4 -25 -8
-56 -10 -70 -3 -14 -10 -59 -16 -100 -6 -41 -14 -86 -16 -100 -2 -14 -7 -45
-10 -70 -3 -25 -7 -53 -11 -64 -3 -10 -7 -35 -9 -55 -6 -53 -20 -146 -28 -189
-3 -15 -8 -45 -11 -67 -3 -22 -7 -51 -10 -65 -5 -23 -10 -60 -20 -135 -2 -16
-7 -41 -10 -55 -3 -14 -7 -38 -10 -55 -12 -77 -14 -92 -19 -120 -3 -16 -10
-52 -16 -80 -6 -27 -13 -66 -16 -85 -10 -71 -36 -153 -55 -180 -22 -30 -82
-66 -129 -80 -28 -8 -34 -4 -93 57 -109 115 -151 163 -142 163 2 0 -9 15 -26
32 -16 18 -32 41 -35 50 -3 10 -10 18 -15 18 -5 0 -9 6 -9 14 0 7 -7 19 -16
27 -8 7 -24 29 -35 48 -10 20 -30 54 -43 76 -57 92 -180 366 -191 422 -2 10
-4 19 -5 21 -2 1 -3 5 -4 10 -1 4 -11 39 -23 77 -27 93 -59 241 -68 320 -16
137 -19 187 -19 335 0 149 6 260 18 330 2 14 8 48 12 75 15 101 44 223 60 256
7 15 11 29 9 31 -10 10 100 297 119 310 6 4 8 8 4 8 -11 0 91 200 102 200 6 0
9 4 8 8 -4 11 35 82 44 82 5 0 8 5 8 11 0 13 67 109 89 127 8 6 12 12 8 12 -4
0 0 8 7 18 89 108 119 142 129 142 5 0 7 3 4 6 -4 4 48 60 115 125 67 65 123
117 125 115 2 -1 21 15 44 36 22 21 44 36 49 33 4 -3 10 1 13 8 6 16 181 133
257 173 30 16 57 31 60 34 26 26 378 169 453 184 12 3 47 11 77 20 77 20 195
44 260 51 30 4 80 10 110 14 60 8 434 6 490 -3z"/>
</g>
</svg>
